<svg xmlns="http://www.w3.org/2000/svg" width="116.621" height="123.68" viewBox="0 0 116.621 123.68">
    <defs>
        <linearGradient id="linear-gradient" x1=".04" x2=".962" y1=".446" y2=".45" gradientUnits="objectBoundingBox">
            <stop offset="0" stop-color="#d82e76"/>
            <stop offset="1" stop-color="#ff032d"/>
        </linearGradient>
    </defs>
    <g id="Group_6475" data-name="Group 6475" transform="translate(-122.001 -3152.941)">
        <g id="Group_6474" data-name="Group 6474">
            <path id="Path_5860" fill="#f7f7f7" d="M31.022 20.178L69.654 0v95.274H0z" data-name="Path 5860" transform="rotate(45 -3719.773 1808.589)"/>
            <g id="interview" transform="translate(135 3147.937)">
                <g id="Group_6321" data-name="Group 6321" transform="translate(61.918 73.28)">
                    <g id="Group_6320" data-name="Group 6320">
                        <path id="Path_6637" d="M358.969 421.84a1.738 1.738 0 1 0 .51 1.23 1.751 1.751 0 0 0-.51-1.23z" data-name="Path 6637" transform="translate(-356 -421.33)"/>
                    </g>
                </g>
                <g id="Group_6323" data-name="Group 6323" transform="translate(0 14.262)">
                    <g id="Group_6322" data-name="Group 6322">
                        <path id="Path_6638" stroke="#fff" d="M83.441 95.848a7.282 7.282 0 0 0 2.131-5.148v-1.4a7.3 7.3 0 1 0-14.61 0v1.4a7.282 7.282 0 0 0 2.132 5.152 10.812 10.812 0 0 0-5.47 7.718h-7.967a5.216 5.216 0 0 0-4.919 6.957H34.312a5.216 5.216 0 0 0-4.919-6.957h-7.966a10.811 10.811 0 0 0-5.47-7.718 7.282 7.282 0 0 0 2.131-5.152v-1.4a7.3 7.3 0 1 0-14.61 0v1.4a7.282 7.282 0 0 0 2.132 5.148A10.792 10.792 0 0 0 0 105.306v19.509a9.9 9.9 0 0 0 9.885 9.885h13.769v16.61a5.449 5.449 0 0 0 .38 2h-6.873a1.739 1.739 0 1 0 0 3.479h62.207a1.739 1.739 0 1 0 0-3.479H65.017a5.449 5.449 0 0 0 .38-2v-2a1.739 1.739 0 1 0-3.479 0v2a2 2 0 1 1-4 0v-21.959a4.919 4.919 0 0 1 4.913-4.913h22.741v.377a6.413 6.413 0 0 1-6.406 6.406H63.657a1.739 1.739 0 0 0-1.739 1.739v2.783a1.739 1.739 0 0 0 3.479 0V134.7h13.769a9.9 9.9 0 0 0 9.885-9.885v-19.509a10.792 10.792 0 0 0-5.61-9.458zm-9-6.543a3.826 3.826 0 1 1 7.653 0V90.7a3.826 3.826 0 0 1-7.653 0zm-67.483 0a3.826 3.826 0 1 1 7.653 0V90.7a3.826 3.826 0 0 1-7.653 0zm-3.479 16a7.3 7.3 0 1 1 14.61 0 1.739 1.739 0 0 0 1.739 1.739h9.566a1.739 1.739 0 0 1 0 3.479H19.265a7.476 7.476 0 0 1-6.6-3.952 1.739 1.739 0 1 0-3.065 1.644 10.947 10.947 0 0 0 8.587 5.735 1.737 1.737 0 0 0-.1.575v6.435H3.479zm21.459 15.655h-3.371v-6.435a1.736 1.736 0 0 0-.08-.522h3.451a6.931 6.931 0 0 0 0 6.957zm6.195 30.35a2 2 0 0 1-4 0v-18.35a1.739 1.739 0 0 0-1.739-1.739H9.885a6.413 6.413 0 0 1-6.406-6.406v-.377h22.74a4.919 4.919 0 0 1 4.913 4.913zm8.175 2h-5.076a5.446 5.446 0 0 0 .38-2v-21.959a8.344 8.344 0 0 0-1.6-4.913h6.291zm6.957 0h-3.479v-28.872h3.479zm8.554 0h-5.076v-28.872h6.291a8.345 8.345 0 0 0-1.6 4.913v21.959a5.449 5.449 0 0 0 .385 2zm3.273-32.35H30.959a3.479 3.479 0 0 1 0-6.957h27.132a3.479 3.479 0 1 1 0 6.957zm9.392-6.435v6.435h-3.372a6.931 6.931 0 0 0 0-6.957h3.451a1.736 1.736 0 0 0-.08.521zm18.088 6.435h-14.61v-6.435a1.737 1.737 0 0 0-.1-.575 10.947 10.947 0 0 0 8.587-5.735 1.739 1.739 0 1 0-3.066-1.643 7.476 7.476 0 0 1-6.6 3.952H59.657a1.739 1.739 0 0 1 0-3.479h9.566a1.739 1.739 0 0 0 1.739-1.739 7.3 7.3 0 1 1 14.61 0z" data-name="Path 6638" transform="translate(0 -82)"/>
                    </g>
                </g>
                <g id="Group_6325" data-name="Group 6325" transform="translate(30.261 5.255)">
                    <g id="Group_6324" data-name="Group 6324">
                        <path id="Path_6639" fill="url(#linear-gradient)" stroke="#fff" stroke-width="0.5px" d="M178.333 0H158.2a4.2 4.2 0 0 0-4.2 4.2v13.7a4.2 4.2 0 0 0 4.2 4.2h4.875l4.205 4.205a1.4 1.4 0 0 0 1.978 0l4.205-4.205h4.875a4.2 4.2 0 0 0 4.2-4.2V4.2a4.2 4.2 0 0 0-4.205-4.2zm1.4 17.9a1.4 1.4 0 0 1-1.4 1.4h-5.454a1.4 1.4 0 0 0-.989.41l-3.626 3.626-3.626-3.626a1.4 1.4 0 0 0-.989-.409H158.2a1.4 1.4 0 0 1-1.4-1.4V4.2a1.4 1.4 0 0 1 1.4-1.4h20.138a1.4 1.4 0 0 1 1.4 1.4z" data-name="Path 6639" transform="translate(-154)"/>
                    </g>
                </g>
                <g id="Group_6332" data-name="Group 6332">
                    <g id="Group_6327" data-name="Group 6327" transform="translate(37.061 15.638)">
                        <g id="Group_6326" data-name="Group 6326">
                            <path id="Path_6640" d="M201.235 65.554a1.309 1.309 0 1 0 .384.926 1.313 1.313 0 0 0-.384-.926z" data-name="Path 6640" transform="translate(-199 -65.17)"/>
                        </g>
                    </g>
                    <g id="Group_6329" data-name="Group 6329" transform="translate(43.216 15.638)">
                        <g id="Group_6328" data-name="Group 6328">
                            <path id="Path_6641" d="M248.235 65.554a1.309 1.309 0 1 0 .384.926 1.32 1.32 0 0 0-.384-.926z" data-name="Path 6641" transform="translate(-246 -65.17)"/>
                        </g>
                    </g>
                    <g id="Group_6331" data-name="Group 6331" transform="translate(49.37 15.638)">
                        <g id="Group_6330" data-name="Group 6330">
                            <path id="Path_6642" d="M295.235 65.554a1.309 1.309 0 1 0 .384.926 1.313 1.313 0 0 0-.384-.926z" data-name="Path 6642" transform="translate(-293 -65.17)"/>
                        </g>
                    </g>
                </g>
            </g>
        </g>
    </g>
</svg>
